<svg version="1.1" id="Layer_1" xmlns="http://www.w3.org/2000/svg"	className='logoV' xmlns:xlink="http://www.w3.org/1999/xlink" x="0px" y="0px"
	 width="200px" viewBox="0 0 496 496" enable-background="new 0 0 496 496" xml:space="preserve" >
<path fill="#00f260" opacity="1.000000" stroke="none" 
	d="
M279.111267,315.158569 
	C252.749176,331.018402 226.703232,346.697327 199.929962,362.814056 
	C198.558517,354.732483 198.635757,347.628906 198.995468,340.545013 
	C199.109589,338.297577 201.548920,337.640167 203.214981,336.629303 
	C226.137726,322.721008 249.083496,308.850677 272.004425,294.939392 
	C273.797760,293.850983 275.914337,293.103058 277.329895,290.413879 
	C257.922607,279.818878 238.594467,269.267090 218.399048,258.241791 
	C218.399048,265.334259 218.318192,271.390106 218.445526,277.441559 
	C218.486771,279.401794 220.435379,279.950592 221.859756,280.745911 
	C228.079742,284.218750 234.317352,287.660034 241.323380,291.542145 
	C235.085327,296.677368 228.576233,299.888428 222.437546,303.637299 
	C221.294052,304.335571 220.165161,303.535400 219.157440,302.990601 
	C213.006058,299.665100 206.877213,296.297882 200.732117,292.960663 
	C198.633621,291.821014 197.675720,290.152313 197.641418,287.704712 
	C197.363632,267.888916 197.002213,248.074280 196.703690,228.258743 
	C196.684525,226.986328 196.976166,225.709229 197.117966,224.479996 
	C199.643539,223.968246 201.244797,225.400238 202.931122,226.313446 
	C226.943634,239.316833 250.883575,252.455231 274.960968,265.336884 
	C278.868561,267.427490 280.628601,269.880707 280.315125,274.333221 
	C279.980103,279.091614 280.239624,283.891876 280.239624,289.814697 
	C286.004028,286.431885 290.878784,283.723602 295.584717,280.748230 
	C298.121765,279.144196 300.249817,278.937775 302.931244,280.532959 
	C308.176636,283.653412 313.624084,286.434265 320.385803,290.117126 
	C305.945618,298.881897 292.686523,306.929749 279.111267,315.158569 
z"/>
<path fill="grey" opacity="1.000000" stroke="none" 
	d="
M234.082397,193.021759 
	C262.476471,176.676849 290.555786,160.518707 319.677429,143.760803 
	C320.670898,152.122314 320.450378,159.170227 319.943359,166.178436 
	C319.773712,168.523865 317.103638,169.269348 315.265869,170.326630 
	C291.884125,183.778244 268.481110,197.192825 245.090622,210.629242 
	C243.543030,211.518265 242.053238,212.507935 239.449844,214.126343 
	C259.638245,225.738190 278.950867,236.846313 299.502258,248.666946 
	C299.502258,241.232590 299.634583,235.165054 299.428284,229.109024 
	C299.358887,227.070892 297.175598,226.397964 295.613159,225.484665 
	C289.506165,221.914978 283.390747,218.359695 276.428528,214.303925 
	C283.118683,209.434982 289.450592,206.223557 295.658478,202.833481 
	C296.959930,202.122757 298.230835,203.099594 299.378418,203.762756 
	C305.289429,207.178650 311.175629,210.637680 317.101410,214.027618 
	C319.167389,215.209488 320.241974,216.801529 320.236328,219.260666 
	C320.189484,239.583344 320.202332,259.906128 320.165497,280.228851 
	C320.164062,281.018982 319.842743,281.808533 319.691864,282.500336 
	C317.661102,283.434875 316.310242,282.242645 314.911072,281.438751 
	C290.365204,267.335815 265.847107,253.184311 241.265778,239.143494 
	C238.478546,237.551453 237.251495,235.733658 237.458588,232.396317 
	C237.786591,227.110031 237.546021,221.788483 237.546021,215.703949 
	C231.868851,217.722321 227.425034,220.524918 223.109238,223.388000 
	C219.695526,225.652664 216.867371,225.596313 213.501434,223.418350 
	C208.783188,220.365341 203.825882,217.681763 197.570267,214.020416 
	C210.336777,206.680252 222.052200,199.944412 234.082397,193.021759 
z"/>
</svg>