<svg version="1.1" id="Layer_1" xmlns="http://www.w3.org/2000/svg" xmlns:xlink="http://www.w3.org/1999/xlink" x="0px" y="0px"
	 width="55px" viewBox="0 0 127 221" enable-background="new 0 0 127 221" xml:space="preserve">
<path fill="transparent" opacity="1.000000" stroke="none" 
	d="
M6.000000,222.000000 
	C4.334383,222.000000 2.668766,222.000000 1.002362,222.000000 
	C1.001575,148.380783 1.001575,74.761551 1.001575,1.071165 
	C43.259129,1.071165 85.518410,1.071165 127.888840,1.071165 
	C127.888840,74.546021 127.888840,148.092255 127.888840,222.000000 
	C87.979828,222.000000 47.958572,222.000000 7.467282,221.781418 
	C6.997251,221.562836 7.071799,221.132095 7.416726,221.064362 
	C46.700485,197.553741 85.639320,174.110855 125.088257,150.360855 
	C123.745255,149.625504 122.931686,149.180038 121.916519,148.468567 
	C116.463120,145.502136 111.211319,142.801712 105.602783,139.998962 
	C98.846764,143.400436 92.447472,146.904251 86.028214,150.001740 
	C85.935020,149.062759 85.861786,148.530106 85.854355,147.534271 
	C85.865280,142.421875 85.712631,137.771088 85.788277,133.123993 
	C85.842926,129.767059 84.491333,127.773201 81.441734,126.158035 
	C66.929245,118.471764 52.606537,110.427383 38.100521,102.728584 
	C27.175907,96.930542 16.076126,91.462547 4.809200,85.539970 
	C4.040689,85.989357 3.048463,86.755035 3.062195,87.502220 
	C3.444597,108.309937 3.928967,129.115768 4.453047,150.246933 
	C11.523195,154.608292 18.502634,158.706711 25.590816,162.607529 
	C26.547176,163.133835 28.336859,163.138519 29.253464,162.582123 
	C34.870918,159.172272 40.348007,155.531158 45.806572,151.635498 
	C38.425228,147.237289 31.109165,143.170685 23.770214,138.646362 
	C23.531919,131.185013 23.316509,124.181374 23.431181,117.250595 
	C26.825155,118.961685 29.893757,120.591179 32.952152,122.239601 
	C50.279957,131.578979 67.605316,140.922882 84.932159,150.452774 
	C84.932800,150.640305 85.110641,150.970535 84.941017,151.273972 
	C59.524433,166.862793 34.307526,182.198349 8.988268,197.363037 
	C6.173285,199.049042 5.039666,200.798386 5.297630,204.083832 
	C5.765098,210.037567 5.790219,216.026031 6.000000,222.000000 
M84.182816,74.692749 
	C91.410309,78.832909 98.637794,82.973076 105.959846,88.031845 
	C105.960129,95.039650 105.960403,102.047455 105.246002,109.019058 
	C103.789040,108.226173 102.318283,107.457504 100.877205,106.636726 
	C82.259476,96.032799 63.645969,85.421463 44.992996,74.415680 
	C44.992996,74.415680 44.819794,74.057167 45.184570,73.448196 
	C70.559349,58.869324 95.959785,44.334560 121.256264,29.621059 
	C123.117538,28.538460 125.297119,26.273508 125.487640,24.373613 
	C126.050133,18.764601 125.733528,13.061852 125.610863,7.399030 
	C125.599579,6.877924 124.517044,6.380023 123.226944,5.972548 
	C101.727547,18.291517 80.205719,30.571556 58.735828,42.941727 
	C41.454380,52.898674 24.235735,62.964622 6.371539,73.072868 
	C6.374285,73.754616 6.121819,74.883232 6.417486,75.052086 
	C12.258281,78.387856 18.162619,81.612358 24.759903,84.934029 
	C31.166498,81.448227 37.573093,77.962425 43.943398,75.504433 
	C43.945400,81.314705 43.696384,87.142235 44.094051,92.925301 
	C44.222420,94.792091 45.607933,97.261223 47.174908,98.225800 
	C55.786755,103.526993 64.614059,108.480698 73.403442,113.490440 
	C90.250977,123.093147 107.122742,132.653351 124.506554,142.672485 
	C124.913727,141.094269 125.667114,139.517776 125.674950,137.937576 
	C125.761322,120.537842 125.755531,103.137482 125.710449,85.737457 
	C125.702812,82.787239 125.391174,79.837814 125.068321,76.205338 
	C118.104904,72.014778 111.160393,67.791969 104.149437,63.682510 
	C103.432198,63.262096 102.090630,63.134014 101.421684,63.525154 
	C95.583817,66.938637 89.833244,70.501419 84.182816,74.692749 
z"/>
<path fill="#0575e6" opacity="1.000000" stroke="none" 
	d="
M6.250000,222.000000 
	C5.790219,216.026031 5.765098,210.037567 5.297630,204.083832 
	C5.039666,200.798386 6.173285,199.049042 8.988268,197.363037 
	C34.307526,182.198349 59.524433,166.862793 85.127335,151.235687 
	C85.733612,150.804108 85.921913,150.642136 86.048180,150.408066 
	C92.447472,146.904251 98.846764,143.400436 105.598541,140.431915 
	C106.300598,144.311493 106.650162,147.655746 106.684090,151.137024 
	C79.610222,167.364822 53.026432,183.757416 25.996536,199.378082 
	C16.878452,204.647446 10.326363,211.217285 7.071799,221.132095 
	C7.071799,221.132095 6.997251,221.562836 6.998625,221.781418 
	C7.000000,222.000000 6.500000,222.000000 6.250000,222.000000 
z"/>
<path fill="grey" opacity="1.000000" stroke="none" 
	d="
M123.931931,5.871346 
	C124.517044,6.380023 125.599579,6.877924 125.610863,7.399030 
	C125.733528,13.061852 126.050133,18.764601 125.487640,24.373613 
	C125.297119,26.273508 123.117538,28.538460 121.256264,29.621059 
	C95.959785,44.334560 70.559349,58.869324 44.841705,73.778046 
	C44.284451,74.172638 44.111401,74.295547 43.979687,74.476624 
	C37.573093,77.962425 31.166498,81.448227 24.389721,84.475929 
	C23.668802,80.682381 23.318068,77.346931 23.178963,73.742615 
	C51.720966,57.239910 79.962791,40.848221 108.439072,24.874485 
	C116.335732,20.444860 120.973816,14.002440 123.931931,5.871346 
z"/>
<path fill="#0575e6" opacity="1.000000" stroke="none" 
	d="
M5.054316,85.847641 
	C16.076126,91.462547 27.175907,96.930542 38.100521,102.728584 
	C52.606537,110.427383 66.929245,118.471764 81.441734,126.158035 
	C84.491333,127.773201 85.842926,129.767059 85.788277,133.123993 
	C85.712631,137.771088 85.865280,142.421875 85.632324,147.541382 
	C85.344490,148.011688 84.901131,148.041977 84.611008,147.864471 
	C83.009232,145.396484 81.740479,143.080093 80.376274,140.821350 
	C78.099274,137.051285 76.128403,133.382996 71.681206,131.116791 
	C59.149059,124.730637 46.983139,117.628365 34.634125,110.879257 
	C28.026363,107.267921 21.338772,103.802658 14.687210,100.271461 
	C14.392301,100.574562 14.097391,100.877663 13.802482,101.180763 
	C16.902021,106.513084 20.001562,111.845413 23.101101,117.177734 
	C23.316509,124.181374 23.531919,131.185013 23.475981,138.793640 
	C19.800484,140.940964 16.396336,142.483322 12.998636,143.555450 
	C12.998210,137.284271 13.112914,131.480118 12.960056,125.683014 
	C12.602559,112.125023 14.044234,98.182983 5.080257,86.337425 
	C4.998548,86.229454 5.059805,86.013290 5.054316,85.847641 
z"/>
<path fill="#0575e6" opacity="1.000000" stroke="none" 
	d="
M7.416726,221.064362 
	C10.326363,211.217285 16.878452,204.647446 25.996536,199.378082 
	C53.026432,183.757416 79.610222,167.364822 107.127472,151.136261 
	C112.630371,150.243835 117.374252,149.489212 122.118126,148.734573 
	C122.931686,149.180038 123.745255,149.625504 125.088257,150.360855 
	C85.639320,174.110855 46.700485,197.553741 7.416726,221.064362 
z"/>
<path fill="grey" opacity="1.000000" stroke="none" 
	d="
M123.579437,5.921947 
	C120.973816,14.002440 116.335732,20.444860 108.439072,24.874485 
	C79.962791,40.848221 51.720966,57.239910 22.716129,73.739220 
	C17.024185,73.663864 12.006705,73.323036 6.989224,72.982208 
	C24.235735,62.964622 41.454380,52.898674 58.735828,42.941727 
	C80.205719,30.571556 101.727547,18.291517 123.579437,5.921947 
z"/>
<path fill="grey" opacity="1.000000" stroke="none" 
	d="
M43.961540,74.990524 
	C44.111401,74.295547 44.284451,74.172638 44.659317,74.082535 
	C44.819794,74.057167 44.992996,74.415680 45.026848,74.989258 
	C45.656891,76.925125 46.159142,78.338379 46.865635,79.640831 
	C49.821594,85.090248 51.810913,91.054123 57.901878,94.419037 
	C71.384178,101.867249 84.571686,109.847145 97.992226,117.410019 
	C103.559097,120.547127 109.414597,123.172073 115.422043,126.021187 
	C116.084641,126.013420 116.464035,126.014404 116.875122,126.401672 
	C117.457245,128.289734 117.897163,129.843933 118.579735,131.283035 
	C120.323631,134.959778 122.175667,138.585220 123.984451,142.231186 
	C107.122742,132.653351 90.250977,123.093147 73.403442,113.490440 
	C64.614059,108.480698 55.786755,103.526993 47.174908,98.225800 
	C45.607933,97.261223 44.222420,94.792091 44.094051,92.925301 
	C43.696384,87.142235 43.945400,81.314705 43.961540,74.990524 
z"/>
<path fill="grey" opacity="1.000000" stroke="none" 
	d="
M115.138832,126.029938 
	C109.414597,123.172073 103.559097,120.547127 97.992226,117.410019 
	C84.571686,109.847145 71.384178,101.867249 57.901878,94.419037 
	C51.810913,91.054123 49.821594,85.090248 46.865635,79.640831 
	C46.159142,78.338379 45.656891,76.925125 45.046051,75.187408 
	C63.645969,85.421463 82.259476,96.032799 100.877205,106.636726 
	C102.318283,107.457504 103.789040,108.226173 105.649284,109.384399 
	C109.081322,115.176476 112.110077,120.603203 115.138832,126.029938 
z"/>
<path fill="#0575e6" opacity="1.000000" stroke="none" 
	d="
M23.431183,117.250595 
	C20.001562,111.845413 16.902021,106.513084 13.802482,101.180763 
	C14.097391,100.877663 14.392301,100.574562 14.687210,100.271461 
	C21.338772,103.802658 28.026363,107.267921 34.634125,110.879257 
	C46.983139,117.628365 59.149059,124.730637 71.681206,131.116791 
	C76.128403,133.382996 78.099274,137.051285 80.376274,140.821350 
	C81.740479,143.080093 83.009232,145.396484 84.638062,148.233963 
	C84.947319,149.275711 84.939415,149.770477 84.931511,150.265228 
	C67.605316,140.922882 50.279957,131.578979 32.952152,122.239601 
	C29.893757,120.591179 26.825155,118.961685 23.431183,117.250595 
z"/>
<path fill="grey" opacity="1.000000" stroke="none" 
	d="
M124.245499,142.451843 
	C122.175667,138.585220 120.323631,134.959778 118.579735,131.283035 
	C117.897163,129.843933 117.457245,128.289734 116.919266,125.932724 
	C116.947830,110.382736 116.963943,95.687988 117.301491,80.861565 
	C120.155281,79.449257 122.687637,78.168640 125.219994,76.888023 
	C125.391174,79.837814 125.702812,82.787239 125.710449,85.737457 
	C125.755531,103.137482 125.761322,120.537842 125.674950,137.937576 
	C125.667114,139.517776 124.913727,141.094269 124.245499,142.451843 
z"/>
<path fill="#0575e6" opacity="1.000000" stroke="none" 
	d="
M4.809201,85.539970 
	C5.059805,86.013290 4.998548,86.229454 5.080257,86.337425 
	C14.044234,98.182983 12.602559,112.125023 12.960056,125.683014 
	C13.112914,131.480118 12.998210,137.284271 13.000824,143.858398 
	C12.996349,145.034134 12.996136,145.436707 12.646767,145.917358 
	C9.663910,147.304291 7.030208,148.613113 4.396504,149.921936 
	C3.928967,129.115768 3.444597,108.309937 3.062195,87.502220 
	C3.048463,86.755035 4.040689,85.989357 4.809201,85.539970 
z"/>
<path fill="grey" opacity="1.000000" stroke="none" 
	d="
M116.980057,80.993248 
	C116.963943,95.687988 116.947830,110.382736 116.887573,125.546432 
	C116.464035,126.014404 116.084641,126.013420 115.422043,126.021187 
	C112.110077,120.603203 109.081322,115.176476 106.006622,109.402496 
	C105.960403,102.047455 105.960129,95.039650 106.239586,87.423393 
	C109.684273,84.875282 112.849220,82.935631 116.255646,80.995468 
	C116.497116,80.994965 116.980057,80.993248 116.980057,80.993248 
z"/>
<path fill="#0575e6" opacity="1.000000" stroke="none" 
	d="
M4.453050,150.246948 
	C7.030208,148.613113 9.663910,147.304291 13.016836,145.971329 
	C15.214898,146.646133 16.725433,147.285660 18.166992,148.054520 
	C23.901249,151.112885 29.560654,154.239044 36.508617,152.925400 
	C39.580288,152.344635 42.747826,152.270950 45.871849,151.967072 
	C40.348007,155.531158 34.870918,159.172272 29.253464,162.582123 
	C28.336859,163.138519 26.547176,163.133835 25.590816,162.607529 
	C18.502634,158.706711 11.523195,154.608292 4.453050,150.246948 
z"/>
<path fill="grey" opacity="1.000000" stroke="none" 
	d="
M117.301491,80.861565 
	C116.980057,80.993248 116.497116,80.994965 115.931419,80.862640 
	C112.031509,78.893013 108.827957,76.731834 105.322975,75.317818 
	C102.359673,74.122322 99.067322,73.336067 95.884109,73.195633 
	C91.961411,73.022575 88.000908,73.706375 84.056747,74.019867 
	C89.833244,70.501419 95.583817,66.938637 101.421684,63.525154 
	C102.090630,63.134014 103.432198,63.262096 104.149437,63.682510 
	C111.160393,67.791969 118.104904,72.014778 125.144157,76.546677 
	C122.687637,78.168640 120.155281,79.449257 117.301491,80.861565 
z"/>
<path fill="#0575e6" opacity="1.000000" stroke="none" 
	d="
M45.806572,151.635498 
	C42.747826,152.270950 39.580288,152.344635 36.508617,152.925400 
	C29.560654,154.239044 23.901249,151.112885 18.166992,148.054520 
	C16.725433,147.285660 15.214898,146.646133 13.365992,145.893219 
	C12.996136,145.436707 12.996349,145.034134 12.994375,144.328613 
	C16.396336,142.483322 19.800484,140.940964 23.498867,139.251343 
	C31.109165,143.170685 38.425228,147.237289 45.806572,151.635498 
z"/>
<path fill="grey" opacity="1.000000" stroke="none" 
	d="
M84.119781,74.356308 
	C88.000908,73.706375 91.961411,73.022575 95.884109,73.195633 
	C99.067322,73.336067 102.359673,74.122322 105.322975,75.317818 
	C108.827957,76.731834 112.031509,78.893013 115.689949,80.863144 
	C112.849220,82.935631 109.684273,84.875282 106.192307,86.964088 
	C98.637794,82.973076 91.410309,78.832909 84.119781,74.356308 
z"/>
<path fill="grey" opacity="1.000000" stroke="none" 
	d="
M6.680382,73.027542 
	C12.006705,73.323036 17.024185,73.663864 22.504501,74.008087 
	C23.318068,77.346931 23.668802,80.682381 24.036789,84.438660 
	C18.162619,81.612358 12.258281,78.387856 6.417486,75.052086 
	C6.121819,74.883232 6.374285,73.754616 6.680382,73.027542 
z"/>
<path fill="#0575e6" opacity="1.000000" stroke="none" 
	d="
M121.916519,148.468567 
	C117.374252,149.489212 112.630371,150.243835 107.443115,150.999237 
	C106.650162,147.655746 106.300598,144.311493 105.955276,140.534271 
	C111.211319,142.801712 116.463120,145.502136 121.916519,148.468567 
z"/>
<path fill="" opacity="1.000000" stroke="none" 
	d="
M84.932159,150.452759 
	C84.939415,149.770477 84.947319,149.275711 84.928177,148.411469 
	C84.901131,148.041977 85.344490,148.011688 85.566513,148.004562 
	C85.861786,148.530106 85.935020,149.062759 86.028214,150.001740 
	C85.921913,150.642136 85.733612,150.804108 85.296967,150.932251 
	C85.110641,150.970535 84.932800,150.640305 84.932159,150.452759 
z"/>
</svg>